<svg xmlns="http://www.w3.org/2000/svg" viewBox="0 0 600 340" fill="none">
  <defs>
    <linearGradient id="bg7" x1="0" y1="0" x2="600" y2="340">
      <stop offset="0%" stop-color="#1A1A1A"/>
      <stop offset="100%" stop-color="#0A101A"/>
    </linearGradient>
  </defs>
  <rect width="600" height="340" fill="url(#bg7)"/>
  <rect x="100" y="60" width="160" height="200" rx="8" fill="#141414" stroke="rgba(255,255,255,0.08)" stroke-width="1"/>
  <rect x="120" y="90" width="120" height="120" rx="4" fill="#fff" fill-opacity="0.05"/>
  <rect x="130" y="100" width="20" height="20" fill="#F97316" fill-opacity="0.6"/>
  <rect x="155" y="100" width="20" height="20" fill="rgba(255,255,255,0.1)"/>
  <rect x="180" y="100" width="20" height="20" fill="rgba(255,255,255,0.1)"/>
  <rect x="130" y="125" width="20" height="20" fill="rgba(255,255,255,0.1)"/>
  <rect x="155" y="125" width="20" height="20" fill="#F97316" fill-opacity="0.4"/>
  <rect x="300" y="60" width="220" height="200" rx="8" fill="#141414" stroke="rgba(255,255,255,0.08)" stroke-width="1"/>
  <rect x="320" y="85" width="180" height="12" rx="4" fill="rgba(249,115,22,0.3)"/>
  <rect x="320" y="110" width="140" height="8" rx="4" fill="rgba(255,255,255,0.08)"/>
  <rect x="320" y="130" width="160" height="8" rx="4" fill="rgba(255,255,255,0.08)"/>
  <rect x="320" y="150" width="120" height="8" rx="4" fill="rgba(255,255,255,0.08)"/>
  <rect x="320" y="180" width="100" height="30" rx="6" fill="rgba(249,115,22,0.2)"/>
  <text x="300" y="310" text-anchor="middle" fill="#A3A3A3" font-family="Plus Jakarta Sans, sans-serif" font-size="14" font-weight="600">QR Inventory Tracker</text>
</svg>
