<svg xmlns="http://www.w3.org/2000/svg" viewBox="0 0 24 24" fill="#00878F"><path d="M18.71 6.75a2.25 2.25 0 0 0 0-4.5H16.5V6.75h2.21zm-2.21 1.5H16.5V12h2.21a2.25 2.25 0 0 0 0-4.5zM13.5 2.25H11.25a2.25 2.25 0 0 0 0 4.5H13.5V2.25zm0 6H11.25a2.25 2.25 0 0 0 0 4.5H13.5V8.25zm-2.25 6a2.25 2.25 0 0 0 4.5 0v-1.5H11.25v1.5zM8.25 2.25A2.25 2.25 0 0 0 6 4.5v3.75h2.25a2.25 2.25 0 0 0 0-4.5V2.25zm0 6A2.25 2.25 0 0 0 6 10.5v3.75h2.25a2.25 2.25 0 0 0 0-4.5V8.25zM6 15.75a2.25 2.25 0 0 0 2.25 2.25H8.25V15.75H6z"/></svg>
