<svg xmlns="http://www.w3.org/2000/svg" viewBox="0 0 24 24" fill="#F24E1E"><path d="M15.852 8.981h-4.588V0h4.588c2.476 0 4.588 2.147 4.588 4.49s-2.112 4.491-4.588 4.491zM12.735 7.51h3.117c1.916 0 3.493-1.658 3.493-3.52 0-1.86-1.577-3.519-3.493-3.519h-3.117V7.51zm0 1.471H8.148c-2.476 0-4.588-2.147-4.588-4.49S5.672 0 8.148 0h4.588v8.981zm-4.587-7.51c-1.916 0-3.493 1.659-3.493 3.52 0 1.86 1.577 3.519 3.493 3.519h3.117V1.471H8.148zm4.587 15.019H8.148c-2.476 0-4.588-2.147-4.588-4.49s2.112-4.49 4.588-4.49h4.587v8.98zM8.148 8.981c-1.916 0-3.493 1.659-3.493 3.52 0 1.86 1.577 3.519 3.493 3.519h3.117V8.981H8.148zM8.172 24c-2.489 0-4.515-2.014-4.515-4.49 0-2.476 2.026-4.491 4.515-4.491h3.093v8.981H8.172zm0-7.51a3.05 3.05 0 0 0-3.044 3.02 3.05 3.05 0 0 0 3.044 3.02 3.05 3.05 0 0 0 3.044-3.02 3.05 3.05 0 0 0-3.044-3.02zm11.68 4.49c0 2.476-2.026 4.49-4.515 4.49H12.26v-8.98h3.077c2.489 0 4.515 2.015 4.515 4.49z"/></svg>
