<svg xmlns="http://www.w3.org/2000/svg" viewBox="0 0 24 24" fill="#FF2D20"><path d="M23.642 5.43a.364.364 0 0 1 .014.1v5.149c0 .033-.005.066-.014.098l-6.645 3.64a.364.364 0 0 1-.33 0L9.65 11.58a.364.364 0 0 1-.165-.33V5.93a.364.364 0 0 1 .165-.33l6.707-3.67a.364.364 0 0 1 .33 0l6.755 3.5zM.358 5.43a.364.364 0 0 1 .014.1v5.149c0 .033-.005.066-.014.098L6.993 14.42a.364.364 0 0 1-.33 0L.018 10.78a.364.364 0 0 1-.165-.33V5.13a.364.364 0 0 1 .165-.33L6.663 1.13a.364.364 0 0 1 .33 0L.358 5.43zM12 8.16l-5.33 2.92v5.84l5.33 2.92 5.33-2.92v-5.84L12 8.16z"/></svg>
