<svg xmlns="http://www.w3.org/2000/svg" viewBox="0 0 24 24" fill="#4479A1"><path d="M16.405 5.5c1.228 0 2.19.297 2.886.89.697.594 1.046 1.418 1.046 2.473 0 .855-.228 1.544-.684 2.066-.456.523-1.08.88-1.872 1.07v.14c1.053.24 1.848.72 2.385 1.44.537.72.806 1.653.806 2.8 0 1.228-.42 2.19-1.26 2.886-.84.697-2.002 1.046-3.486 1.046H8.983V5.5h7.422zm-1.092 5.67c.72 0 1.26-.15 1.62-.45.36-.3.54-.75.54-1.35 0-.54-.18-.96-.54-1.26-.36-.3-.9-.45-1.62-.45h-2.19v3.51h2.19zm.21 5.88c.84 0 1.47-.18 1.89-.54.42-.36.63-.9.63-1.62 0-.66-.21-1.17-.63-1.53-.42-.36-1.05-.54-1.89-.54h-2.4v4.23h2.4zM1.5 5.5h4.5v13H1.5v-13z"/></svg>
