<svg xmlns="http://www.w3.org/2000/svg" viewBox="0 0 24 24" fill="#777BB4"><path d="M12 0C5.373 0 0 5.373 0 12s5.373 12 12 12 12-5.373 12-12S18.627 0 12 0zM7.5 18.5c-1.5 0-2.5-.75-3.25-1.75l1.75-1.25c.5.75 1 1.25 1.75 1.25.75 0 1.25-.5 1.25-1.25 0-2-4.5-1.75-4.5-5.25 0-2 1.5-3.5 3.75-3.5 1.5 0 2.5.5 3.25 1.5l-1.5 1.25c-.5-.5-1-.75-1.75-.75-.75 0-1.25.5-1.25 1.25 0 1.75 4.5 1.5 4.5 5.25 0 2.25-1.5 3.75-4 3.75zm9.5 0c-1.5 0-2.5-.75-3.25-1.75l1.75-1.25c.5.75 1 1.25 1.75 1.25.75 0 1.25-.5 1.25-1.25 0-2-4.5-1.75-4.5-5.25 0-2 1.5-3.5 3.75-3.5 1.5 0 2.5.5 3.25 1.5l-1.5 1.25c-.5-.5-1-.75-1.75-.75-.75 0-1.25.5-1.25 1.25 0 1.75 4.5 1.5 4.5 5.25 0 2.25-1.5 3.75-4 3.75z"/></svg>
